<?xml version="1.0"?>
<svg xmlns="http://www.w3.org/2000/svg" xmlns:xlink="http://www.w3.org/1999/xlink" xmlns:svgjs="http://svgjs.com/svgjs" version="1.1" width="512" height="512" x="0" y="0" viewBox="0 0 512 512" style="enable-background:new 0 0 512 512" xml:space="preserve" class=""><g><g xmlns="http://www.w3.org/2000/svg"><path d="m256.797 0c-28.128 6.225-48.149 31.162-48.149 59.97v50.402l48.149-32.1 48.149 32.1v-50.402c0-28.808-20.022-53.745-48.149-59.97z" fill="#9EC555" data-original="#000000" style="" class=""/><path d="m208.647 146.426v335.068h32.353v30.506h30v-30.506h33.946v-335.068l-48.149-32.1z" fill="#9EC555" data-original="#000000" style="" class=""/><path d="m0 294.122 49.199-5.008v21.494h30v-24.549l34.199-3.481v28.03h30v-31.084l35.249-3.589v-109.73l-178.647 68.759z" fill="#9EC555" data-original="#000000" style="" class=""/><path d="m334.946 166.819v109.278l35.249 3.589v30.922h30v-27.868l34.2 3.482v24.386h30v-21.332l47.605 4.846v-59.158z" fill="#9EC555" data-original="#000000" style="" class=""/><path d="m334.946 481.494h57.576v-40.834l-57.576-33.016z" fill="#9EC555" data-original="#000000" style="" class=""/><path d="m121.071 481.494h57.576v-73.85l-57.576 33.016z" fill="#9EC555" data-original="#000000" style="" class=""/></g></g></svg>
