<svg xmlns="http://www.w3.org/2000/svg" viewBox="0 0 495.88 90"><defs><style>.cls-2{fill:#e57414}</style></defs><g id="Layer_2" data-name="Layer 2"><g id="Logo"><path fill="none" stroke="#e57414" stroke-miterlimit="10" stroke-width="5" d="M133.38 2.5h360v85h-360z"/><path class="cls-2" d="M39.57 47.44H36v15.48h4.54a4 4 0 003.1-1.12 5.76 5.76 0 001-3.85v-4.39c0-2.31-.39-3.9-1.18-4.79a5 5 0 00-3.89-1.33zM42.7 39c.8-.81 1.19-2.18 1.19-4.1v-2.8a6.4 6.4 0 00-1-4 3.69 3.69 0 00-3.06-1.22H36v13.36h3.1A4.73 4.73 0 0042.7 39z"/><path class="cls-2" d="M0 0v90h133V0zm52.6 58.16q0 5.84-3.06 8.9t-9 3.06H28.12v-50.4h12q6.12 0 8.92 2.84c1.88 1.9 2.81 4.81 2.81 8.75v2a13.83 13.83 0 01-1.26 6.34 7.39 7.39 0 01-3.85 3.53v.14q5.91 2 5.9 10.51zm25.56-31.24h-13V41h10.2v7.2H65.13v22h-7.92V19.72h20.95zM105 58.38q0 6-3 9.25t-8.82 3.21q-5.83 0-8.82-3.24t-3-9.29V54.2h7.49v4.47q0 5 4.11 5a3.76 3.76 0 003.06-1.26c.69-.84 1-2.32 1-4.43v-4.14q0-3.45-1.22-4.93a4.89 4.89 0 00-4-1.47h-2.55v-7.2h2.88A4.76 4.76 0 0095.7 39c.79-.81 1.18-2.18 1.18-4.1v-3.66a5.68 5.68 0 00-1.08-3.82 3.63 3.63 0 00-2.88-1.22q-3.81 0-3.81 4.68v3.31h-7.49v-2.67q0-6 3-9.28T93.21 19q5.69 0 8.64 3.2t3 9.25v1.8a13.69 13.69 0 01-1.36 6.59 7.77 7.77 0 01-4.25 3.56v.15a7.93 7.93 0 014.46 3.74 14.18 14.18 0 011.3 6.63zM150.55 19.88h12q6.12 0 8.92 2.85c1.88 1.89 2.81 4.81 2.81 8.75v2a13.86 13.86 0 01-1.28 6.35 7.33 7.33 0 01-3.85 3.52v.15Q175 45.51 175 54v4.32q0 5.83-3.06 8.89t-9 3.06h-12.39zm11 20.52a4.73 4.73 0 003.56-1.22c.8-.82 1.19-2.18 1.19-4.1v-2.81a6.36 6.36 0 00-1-4 3.67 3.67 0 00-3.06-1.23h-3.82V40.4zM163 63.08a4 4 0 003.1-1.11 5.78 5.78 0 001-3.85v-4.4c0-2.3-.39-3.9-1.18-4.78A5 5 0 00162 47.6h-3.53v15.48zM185.76 19.88h10.73l8.21 50.4h-7.92l-1.44-10v.14h-9l-1.44 9.86h-7.35zm8.64 33.7l-3.53-24.91h-.14l-3.46 24.91zM211.39 27.08h-8.28v-7.2h24.48v7.2h-8.28v43.2h-7.92zM238.32 27.08H230v-7.2h24.48v7.2h-8.28v43.2h-7.92zM258.34 19.88h7.92v43.2h13v7.2h-21zM283.1 19.88h21.6v7.2H291V40.4h10.9v7.2H291v15.48h13.7v7.2h-21.6zM320.76 19.88h11.73q6.12 0 8.93 2.85t2.81 8.75v3.09q0 7.84-5.18 9.94v.14a6.17 6.17 0 014.06 3.53 17.63 17.63 0 011.19 7.13v8.85a32.71 32.71 0 00.15 3.5 8.41 8.41 0 00.72 2.62h-8.07a10.86 10.86 0 01-.57-2.3 33.35 33.35 0 01-.15-3.89v-9.21q0-3.47-1.11-4.83c-.75-.91-2-1.37-3.86-1.37h-2.73v21.6h-7.92zm10.8 21.6a4.73 4.73 0 003.56-1.22 5.79 5.79 0 001.19-4.1v-3.89a6.36 6.36 0 00-1-4 3.67 3.67 0 00-3.06-1.23h-3.6v14.4zM352.3 67.69q-3.1-3.31-3.1-9.36v-26.5q0-6 3.1-9.35t8.92-3.32q5.83 0 8.93 3.32t3.1 9.35v26.5q0 6-3.1 9.36T361.22 71q-5.82 0-8.92-3.31zm13-8.86v-27.5q0-5-4.11-5t-4.1 5v27.5c0 3.32 1.37 5 4.1 5s4.14-1.68 4.14-5zM384.55 48.83L375 19.88h8.42l5.4 18.51h.14l5.4-18.51h7.71l-9.58 29v21.4h-7.92zM408.46 19.88h10.72l8.21 50.4h-7.92l-1.44-10v.14h-9l-1.44 9.86h-7.34zm8.64 33.7l-3.53-24.91h-.15L410 53.58zM431.21 19.88h7.92v43.2h13v7.2h-21zM456 19.88h21.6v7.2h-13.71V40.4h10.88v7.2h-10.88v15.48h13.68v7.2H456z"/></g></g></svg>
