<svg xmlns="http://www.w3.org/2000/svg" xmlns:xlink="http://www.w3.org/1999/xlink" viewBox="0 0 1920 1080"><defs><path id="a" transform="rotate(-45.001 959.998 540.014)" d="M768 348h384v384H768z"/></defs><clipPath id="b"><use xlink:href="#a" overflow="visible"/></clipPath><path fill="#9EC555" d="M960 275.1c-6.5 0-12.3 3.9-14.8 9.8l-147 350.7c-2.7 6.6-.8 14.1 4.7 18.6 5.5 4.5 13.3 4.8 19.2.7l138-95.5 138 95.5c5.8 4.1 13.6 3.8 19.2-.7.4-.4.9-.7 1.2-1.1 4.5-4.5 6-11.5 3.4-17.5L974.7 284.9c-2.4-5.9-8.3-9.8-14.7-9.8zm0 0" clip-path="url(#b)"/></svg>
